<?xml version="1.0" encoding="utf-8"?>
<!-- Generated by IcoMoon.io -->
<svg version="1.1" xmlns="http://www.w3.org/2000/svg" xmlns:xlink="http://www.w3.org/1999/xlink" width="560" height="70" viewBox="0 0 560 70">
<svg id="icon-stackoverflow" width="30" height="30" viewBox="0 0 35 35" x="0" y="0">
<path fill="#fff" d="M35 21.875v13.125h-35v-13.125h4.375v8.75h26.25v-8.75zM6.563 24.063h21.875v4.375h-21.875zM7.080 19.327l0.947-4.271 21.357 4.734-0.947 4.271zM9.559 10.546l1.849-3.965 19.825 9.244-1.849 3.965zM33.897 12.355l-2.663 3.471-17.355-13.317 1.926-2.509h1.991z"></path>
</svg>
<svg id="icon-codepen" width="30" height="30" viewBox="0 0 35 35" x="35" y="0">
<path fill="#fff" d="M32.325 12.58l-15.313-10.208c-0.367-0.245-0.846-0.245-1.213 0l-15.313 10.208c-0.304 0.203-0.487 0.544-0.487 0.91v10.208c0 0.366 0.183 0.707 0.487 0.91l15.313 10.208c0.184 0.122 0.395 0.184 0.607 0.184s0.423-0.061 0.607-0.184l15.313-10.208c0.304-0.203 0.487-0.544 0.487-0.91v-10.208c0-0.366-0.183-0.707-0.487-0.91zM16.406 22.383l-5.684-3.79 5.684-3.79 5.684 3.79-5.684 3.79zM17.5 12.904v-7.579l12.247 8.165-5.684 3.79-6.563-4.375zM15.313 12.904l-6.563 4.375-5.684-3.79 12.247-8.165v7.579zM6.778 18.594l-4.591 3.061v-6.121l4.591 3.060zM8.75 19.908l6.563 4.375v7.579l-12.247-8.165 5.684-3.79zM17.5 24.283l6.563-4.375 5.684 3.79-12.247 8.165v-7.579zM26.034 18.594l4.591-3.060v6.121l-4.591-3.061z"></path>
</svg>
<svg id="icon-linkedin" width="30" height="30" viewBox="0 0 35 35" x="70" y="0">
<path fill="#fff" d="M31.719 0h-28.438c-1.805 0-3.281 1.477-3.281 3.281v28.438c0 1.805 1.477 3.281 3.281 3.281h28.438c1.805 0 3.281-1.477 3.281-3.281v-28.438c0-1.805-1.477-3.281-3.281-3.281zM13.125 28.438h-4.375v-15.313h4.375v15.313zM10.938 10.938c-1.21 0-2.188-0.978-2.188-2.188s0.978-2.188 2.188-2.188c1.21 0 2.188 0.978 2.188 2.188s-0.978 2.188-2.188 2.188zM28.438 28.438h-4.375v-8.75c0-1.21-0.978-2.188-2.188-2.188s-2.188 0.978-2.188 2.188v8.75h-4.375v-15.313h4.375v2.714c0.902-1.237 2.283-2.714 3.828-2.714 2.721 0 4.922 2.447 4.922 5.469v9.844z"></path>
</svg>
<svg id="icon-google" width="30" height="30" viewBox="0 0 35 35" x="105" y="0">
<path fill="#fff" d="M31.719 0h-28.438c-1.805 0-3.281 1.477-3.281 3.281v28.438c0 1.805 1.477 3.281 3.281 3.281h28.438c1.805 0 3.281-1.477 3.281-3.281v-28.438c0-1.805-1.477-3.281-3.281-3.281zM17.76 30.625c-7.253 0-13.125-5.872-13.125-13.125s5.872-13.125 13.125-13.125c3.541 0 6.508 1.292 8.791 3.432l-3.562 3.432c-0.978-0.937-2.68-2.023-5.229-2.023-4.484 0-8.135 3.712-8.135 8.285s3.657 8.285 8.135 8.285c5.195 0 7.144-3.732 7.444-5.66h-7.444v-4.498h12.394c0.109 0.656 0.205 1.312 0.205 2.174 0.007 7.499-5.018 12.824-12.599 12.824z"></path>
</svg>
<svg id="icon-twitter" width="30" height="30" viewBox="0 0 35 35" x="140" y="0">
<path fill="#fff" d="M35 7.738c-1.285 0.574-2.673 0.957-4.122 1.128 1.483-0.889 2.618-2.297 3.158-3.972-1.388 0.82-2.926 1.422-4.56 1.743-1.313-1.395-3.179-2.263-5.243-2.263-3.965 0-7.178 3.213-7.178 7.178 0 0.561 0.062 1.107 0.185 1.634-5.968-0.301-11.259-3.158-14.8-7.506-0.615 1.060-0.971 2.297-0.971 3.609 0 2.488 1.265 4.689 3.192 5.975-1.176-0.034-2.283-0.362-3.254-0.896 0 0.027 0 0.062 0 0.089 0 3.479 2.475 6.385 5.763 7.041-0.602 0.164-1.237 0.253-1.894 0.253-0.465 0-0.909-0.048-1.354-0.13 0.916 2.851 3.568 4.929 6.706 4.99-2.461 1.928-5.551 3.076-8.921 3.076-0.581 0-1.148-0.034-1.716-0.103 3.186 2.044 6.959 3.227 11.013 3.227 13.207 0 20.433-10.944 20.433-20.433 0-0.314-0.007-0.622-0.021-0.93 1.401-1.005 2.618-2.27 3.582-3.712z"></path>
</svg>
<svg id="icon-facebook" width="30" height="30" viewBox="0 0 35 35" x="175" y="0">
<path fill="#fff" d="M31.719 0h-28.438c-1.805 0-3.281 1.477-3.281 3.281v28.438c0 1.805 1.477 3.281 3.281 3.281h14.219v-15.313h-4.375v-4.375h4.375v-2.188c0-3.616 2.946-6.563 6.563-6.563h4.375v4.375h-4.375c-1.203 0-2.188 0.984-2.188 2.188v2.188h6.563l-1.094 4.375h-5.469v15.313h9.844c1.805 0 3.281-1.477 3.281-3.281v-28.438c0-1.805-1.477-3.281-3.281-3.281z"></path>
</svg>
<svg id="icon-github" width="30" height="30" viewBox="0 0 35 35" x="210" y="0">
<path fill="#fff" d="M17.5 0.432c-9.664 0-17.5 7.835-17.5 17.5 0 7.732 5.014 14.292 11.968 16.606 0.875 0.162 1.196-0.38 1.196-0.842 0-0.417-0.016-1.796-0.024-3.258-4.869 1.059-5.896-2.065-5.896-2.065-0.796-2.023-1.943-2.561-1.943-2.561-1.588-1.086 0.12-1.064 0.12-1.064 1.757 0.123 2.682 1.804 2.682 1.804 1.561 2.675 4.094 1.902 5.093 1.455 0.157-1.131 0.61-1.903 1.111-2.34-3.887-0.442-7.973-1.943-7.973-8.649 0-1.911 0.684-3.472 1.803-4.697-0.182-0.441-0.781-2.221 0.169-4.631 0 0 1.47-0.47 4.814 1.794 1.396-0.388 2.893-0.582 4.38-0.589 1.487 0.007 2.985 0.201 4.384 0.589 3.341-2.264 4.808-1.794 4.808-1.794 0.953 2.411 0.354 4.19 0.172 4.631 1.122 1.226 1.801 2.787 1.801 4.697 0 6.722-4.094 8.201-7.991 8.635 0.628 0.543 1.187 1.608 1.187 3.241 0 2.342-0.020 4.226-0.020 4.803 0 0.466 0.315 1.012 1.202 0.84 6.949-2.317 11.957-8.874 11.957-16.603 0-9.665-7.835-17.5-17.5-17.5z"></path>
</svg>
<svg id="icon-brand5" width="30" height="30" viewBox="0 0 35 35" x="0" y="35">
<path fill="#fff" d="M29.816 6.388c-1.159-0.656-3.012 0.398-4.134 2.354l-2.039 3.544c-0.744 1.472-0.643 3.227 0.302 4.581l0.059 0.087c0.941 1.352 2.209 2.603 2.625 3.049 0.249 0.262 0.437 0.586 0.54 0.956 0.343 1.247-0.372 2.516-1.603 2.866-1.229 0.35-2.507-0.372-2.85-1.597-0.087-0.306-0.105-0.613-0.066-0.919 0.066-0.503-0.098-1.334-0.827-2.144s-2.218 0.722-2.699 2.319l-0.022 0.087c-0.481 1.575-0.787 2.953-0.696 3.084 0.055 0.087 0.105 0.175 0.153 0.262 0.674 1.269 0.19 2.844-1.081 3.522-1.269 0.678-2.85 0.197-3.522-1.072-0.678-1.269-0.197-2.844 1.076-3.522l0.175-0.087c0.094-0.044 0.372-0.7 0.608-1.487l0.433-1.422c0.026-0.066 0.048-0.153 0.066-0.241l1.291-4.594-1.378 2.822c-0.162-0.525-0.433-0.547-1.022-0.131-0.35 0.262-0.941 0.766-1.225 0.963-0.525 0.394-0.984 1.137-1.225 1.597-0.131 0.284-0.328 0.525-0.591 0.722-0.984 0.809-2.428 0.656-3.216-0.328s-0.634-2.428 0.35-3.216c0.306-0.241 0.634-0.394 0.963-0.459 0.591-0.131 2.559-1.334 3.741-2.188 0.219-0.153 0.394-0.284 0.547-0.438l3.172-2.406-2.756 1.487s-0.284-0.022-0.613 0.022c-1.006 0.109-2.056 0.263-2.253 0.503-0.109 0.153-0.241 0.284-0.416 0.394-0.919 0.656-2.188 0.459-2.866-0.459-0.656-0.919-0.438-2.209 0.481-2.866 0.372-0.263 0.831-0.394 1.247-0.394 0.744 0.022 2.691 0.416 4.309 0.131l0.416-0.066c1.641-0.284 3.566-1.706 4.353-3.15l1.706-2.975c0.941-1.641 0.875-3.434-0.153-4.025l-1.903-1.094c-0.941-0.525-2.472-0.525-3.391 0l-12.755 7.151c-0.962 0.503-1.728 1.816-1.728 2.888v14.031c0 1.072 0.766 2.384 1.698 2.909l12.742 7.175c0.941 0.525 2.472 0.525 3.391 0l12.709-7.175c0.941-0.529 1.706-1.838 1.706-2.909v-14.053c0-1.072-0.766-2.38-1.684-2.909l-2.1-1.186z"></path>
</svg>
</svg>
